<svg xmlns="http://www.w3.org/2000/svg" viewBox="0 0 712.49 349.08"><defs><style>.cls-1{font-size:67px;fill:#fff;font-family:Helvetica;}.cls-2,.cls-3{fill:none;stroke:#fff;stroke-linecap:round;stroke-width:4px;}.cls-2{stroke-miterlimit:10;}.cls-3{stroke-linejoin:round;}</style></defs><title>Asset 1</title><g id="Layer_2" data-name="Layer 2"><g id="Layer_1-2" data-name="Layer 1"><text class="cls-1" transform="translate(0 57.53)">Forth</text><text class="cls-1" transform="translate(444 57.53) scale(1.07 1)">Back</text><path class="cls-2" d="M102.8,286.67H12.67a5.45,5.45,0,0,1-5.44-5.44V96.1a5.44,5.44,0,0,1,5.44-5.43H102.8a5.43,5.43,0,0,1,5.43,5.43V213.63"/><path class="cls-3" d="M265.76,272.14l-75.32-75.33a16.13,16.13,0,0,0-26.74,16.41l-7.58-7.57a16.12,16.12,0,0,0-22.82,0h0A16.1,16.1,0,0,0,129,220.48l-2.83-2.83a16.12,16.12,0,0,0-22.82,0h0a16.14,16.14,0,0,0-2.88,18.91L62,198.15A16.14,16.14,0,0,0,39.18,221L96.7,278.49l8.56,8.48"/><path class="cls-3" d="M105,286.67s3.74,7.94-3.94,16.47-37.53,2.55-50.32,17.05-.27,25.59,12.52,23.89,27.44-3.89,39.5-4c18.48-.14,34.12,9.08,52.89,6.52"/><path class="cls-2" d="M551.23,195.15l.23-99.05A5.44,5.44,0,0,0,546,90.67H455.89a5.43,5.43,0,0,0-5.43,5.43V281.23a5.44,5.44,0,0,0,5.43,5.44H546a5.46,5.46,0,0,0,3-.93"/><path class="cls-3" d="M549.76,284.24s3.73,7.94-4,16.47-37.53,2.56-50.32,17.06-.27,25.59,12.53,23.88,27.43-3.88,39.5-4c18.47-.13,34.11,9.09,52.88,6.53"/><path class="cls-3" d="M710.49,269.72l-75.32-75.33a16.13,16.13,0,0,0-26.74,16.41l-7.58-7.58a16.14,16.14,0,0,0-22.82,0h0a16.1,16.1,0,0,0-4.35,14.83l-2.83-2.83a15.86,15.86,0,0,0-2.31-1.9L510.82,155.6a15.5,15.5,0,0,0-21.92,21.92l55.92,55.92h0l-38.08-37.72a16.14,16.14,0,0,0-22.82,22.83l57.52,57.52,8.55,8.48"/></g></g></svg>