# Blender v2.80 (sub 75) OBJ File: 'chips.blend'
# www.blender.org
mtllib board.mtl
o Cube.018_Cube.027
v 3.141177 14.061570 0.001371
v -3.617191 14.061569 0.001371
v 3.141177 14.061570 -0.082997
v -3.617191 14.061569 -0.082997
v 3.141177 6.208084 0.001371
v -3.617191 6.208083 0.001371
v 3.141177 6.208084 -0.082997
v -3.617191 6.208083 -0.082997
v -3.823616 14.151459 0.068502
v -3.823616 0.523462 0.068502
v -3.823616 14.151459 -0.068502
v -3.823616 0.523462 -0.068502
v -3.686611 14.151459 0.068502
v -3.686611 0.523462 0.068502
v -3.686611 14.151459 -0.068502
v -3.686611 0.523462 -0.068502
v 3.201642 14.151459 0.068502
v 3.201642 0.522352 0.068502
v 3.201642 14.151459 -0.068502
v 3.201642 0.522352 -0.068502
v 3.338646 14.151459 0.068502
v 3.338647 0.522352 0.068502
v 3.338646 14.151459 -0.068502
v 3.338647 0.522352 -0.068502
v 3.379774 14.230872 0.079925
v -3.855789 14.230871 0.079925
v 3.379774 14.230872 -0.079925
v -3.855789 14.230871 -0.079925
v 3.379774 14.093868 0.079925
v -3.855789 14.093866 0.079925
v 3.379774 14.093868 -0.079925
v -3.855789 14.093866 -0.079925
v 3.241032 14.129230 -0.068405
v -3.717046 14.129229 -0.068405
v 3.241032 14.129230 -0.060298
v -3.717046 14.129229 -0.060298
v 3.241032 6.134084 -0.068405
v -3.717046 6.134084 -0.068405
v 3.241032 6.134084 -0.060298
v -3.717046 6.134084 -0.060298
v -3.823615 0.508282 0.075461
v -3.823615 -0.056398 -1.475986
v -3.823615 0.637024 0.028603
v -3.823615 -0.081190 -1.944676
v -3.686610 0.508282 0.075461
v -3.686610 -0.056398 -1.475986
v -3.686610 0.637024 0.028603
v -3.686610 -0.081190 -1.944676
v -3.686611 0.508282 -0.033509
v -3.686610 -0.056398 1.517939
v -3.686611 0.637024 0.013350
v -3.686610 -0.107233 2.058182
v -3.823615 0.508282 -0.033509
v -3.823615 -0.056398 1.517939
v -3.823615 0.637024 0.013350
v -3.823615 -0.107233 2.058182
v 3.272441 0.508282 -0.033509
v 3.272441 -0.056399 1.517939
v 3.272441 0.637024 0.013350
v 3.272441 -0.107234 2.058182
v 3.135436 0.508282 -0.033509
v 3.135437 -0.056399 1.517939
v 3.135436 0.637024 0.013350
v 3.135437 -0.107234 2.058182
v 3.135436 0.508282 0.075461
v 3.135436 -0.056399 -1.475986
v 3.135436 0.637024 0.028603
v 3.135436 -0.081191 -1.944676
v 3.272441 0.508282 0.075461
v 3.272441 -0.056399 -1.475986
v 3.272441 0.637024 0.028603
v 3.272441 -0.081191 -1.944676
v 2.951298 6.144402 0.111270
v -3.427311 6.144401 0.111270
v 2.951298 6.144402 -0.111270
v -3.427311 6.144401 -0.111270
v 2.951298 6.066138 0.111270
v -3.427311 6.066137 0.111270
v 2.951298 6.066138 -0.111270
v -3.427311 6.066137 -0.111270
vt 0.375000 0.000000
vt 0.375000 0.250000
vt 0.625000 0.250000
vt 0.625000 0.000000
vt 0.375000 0.500000
vt 0.625000 0.500000
vt 0.375000 0.750000
vt 0.625000 0.750000
vt 0.375000 1.000000
vt 0.625000 1.000000
vt 0.125000 0.500000
vt 0.125000 0.750000
vt 0.875000 0.750000
vt 0.875000 0.500000
vt 0.375000 0.000000
vt 0.375000 0.250000
vt 0.625000 0.250000
vt 0.625000 0.000000
vt 0.375000 0.500000
vt 0.625000 0.500000
vt 0.375000 0.750000
vt 0.625000 0.750000
vt 0.375000 1.000000
vt 0.625000 1.000000
vt 0.125000 0.500000
vt 0.125000 0.750000
vt 0.875000 0.750000
vt 0.875000 0.500000
vt 0.375000 0.000000
vt 0.375000 0.250000
vt 0.625000 0.250000
vt 0.625000 0.000000
vt 0.375000 0.500000
vt 0.625000 0.500000
vt 0.375000 0.750000
vt 0.625000 0.750000
vt 0.375000 1.000000
vt 0.625000 1.000000
vt 0.125000 0.500000
vt 0.125000 0.750000
vt 0.875000 0.750000
vt 0.875000 0.500000
vt 0.375000 0.000000
vt 0.375000 0.250000
vt 0.625000 0.250000
vt 0.625000 0.000000
vt 0.375000 0.500000
vt 0.625000 0.500000
vt 0.375000 0.750000
vt 0.625000 0.750000
vt 0.375000 1.000000
vt 0.625000 1.000000
vt 0.125000 0.500000
vt 0.125000 0.750000
vt 0.875000 0.750000
vt 0.875000 0.500000
vt 0.375000 0.000000
vt 0.625000 0.000000
vt 0.625000 0.250000
vt 0.375000 0.250000
vt 0.625000 0.500000
vt 0.375000 0.500000
vt 0.625000 0.750000
vt 0.375000 0.750000
vt 0.625000 1.000000
vt 0.375000 1.000000
vt 0.125000 0.500000
vt 0.125000 0.750000
vt 0.875000 0.500000
vt 0.875000 0.750000
vt 0.375000 0.000000
vt 0.375000 0.250000
vt 0.692974 0.250000
vt 0.625000 0.000000
vt 0.375000 0.500000
vt 0.625000 0.500000
vt 0.375000 0.750000
vt 0.625000 0.750000
vt 0.375000 1.000000
vt 0.625000 1.000000
vt 0.125000 0.500000
vt 0.125000 0.750000
vt 0.875000 0.750000
vt 0.875000 0.500000
vt 0.375000 0.000000
vt 0.375000 0.250000
vt 0.704504 0.250000
vt 0.625000 0.000000
vt 0.375000 0.500000
vt 0.625000 0.500000
vt 0.375000 0.750000
vt 0.625000 0.750000
vt 0.375000 1.000000
vt 0.625000 1.000000
vt 0.125000 0.500000
vt 0.125000 0.750000
vt 0.875000 0.750000
vt 0.875000 0.500000
vt 0.375000 0.000000
vt 0.375000 0.250000
vt 0.704504 0.250000
vt 0.625000 0.000000
vt 0.375000 0.500000
vt 0.625000 0.500000
vt 0.375000 0.750000
vt 0.625000 0.750000
vt 0.375000 1.000000
vt 0.625000 1.000000
vt 0.125000 0.500000
vt 0.125000 0.750000
vt 0.875000 0.750000
vt 0.875000 0.500000
vt 0.375000 0.000000
vt 0.375000 0.250000
vt 0.692974 0.250000
vt 0.625000 0.000000
vt 0.375000 0.500000
vt 0.625000 0.500000
vt 0.375000 0.750000
vt 0.625000 0.750000
vt 0.375000 1.000000
vt 0.625000 1.000000
vt 0.125000 0.500000
vt 0.125000 0.750000
vt 0.875000 0.750000
vt 0.875000 0.500000
vt 0.375000 0.000000
vt 0.375000 0.250000
vt 0.625000 0.250000
vt 0.625000 0.000000
vt 0.375000 0.500000
vt 0.625000 0.500000
vt 0.375000 0.750000
vt 0.625000 0.750000
vt 0.375000 1.000000
vt 0.625000 1.000000
vt 0.125000 0.500000
vt 0.125000 0.750000
vt 0.875000 0.750000
vt 0.875000 0.500000
vn -0.0000 1.0000 0.0000
vn 0.0000 0.0000 -1.0000
vn 0.0000 -1.0000 0.0000
vn -0.0000 0.0000 1.0000
vn 1.0000 0.0000 0.0000
vn -1.0000 -0.0000 0.0000
vn 0.0000 0.9397 -0.3420
vn 0.0000 -0.9397 0.3420
vn 0.0000 0.3420 0.9397
vn 0.0000 -0.9986 0.0528
vn 0.0000 0.9397 0.3420
vn -0.0000 -0.9397 -0.3420
vn -0.0000 0.3420 -0.9397
vn -0.0000 -0.9956 -0.0937
usemtl Material.005
s off
f 1/1/1 3/2/1 4/3/1 2/4/1
f 3/2/2 7/5/2 8/6/2 4/3/2
f 7/5/3 5/7/3 6/8/3 8/6/3
f 5/7/4 1/9/4 2/10/4 6/8/4
f 3/11/5 1/12/5 5/7/5 7/5/5
f 8/6/6 6/8/6 2/13/6 4/14/6
usemtl Material.006
f 9/15/6 11/16/6 12/17/6 10/18/6
f 11/16/2 15/19/2 16/20/2 12/17/2
f 15/19/5 13/21/5 14/22/5 16/20/5
f 13/21/4 9/23/4 10/24/4 14/22/4
f 11/25/1 9/26/1 13/21/1 15/19/1
f 16/20/3 14/22/3 10/27/3 12/28/3
f 17/29/6 19/30/6 20/31/6 18/32/6
f 19/30/2 23/33/2 24/34/2 20/31/2
f 23/33/5 21/35/5 22/36/5 24/34/5
f 21/35/4 17/37/4 18/38/4 22/36/4
f 19/39/1 17/40/1 21/35/1 23/33/1
f 24/34/3 22/36/3 18/41/3 20/42/3
f 25/43/1 27/44/1 28/45/1 26/46/1
f 27/44/2 31/47/2 32/48/2 28/45/2
f 31/47/3 29/49/3 30/50/3 32/48/3
f 29/49/4 25/51/4 26/52/4 30/50/4
f 27/53/5 25/54/5 29/49/5 31/47/5
f 32/48/6 30/50/6 26/55/6 28/56/6
f 33/57/1 34/58/1 36/59/1 35/60/1
f 35/60/4 36/59/4 40/61/4 39/62/4
f 39/62/3 40/61/3 38/63/3 37/64/3
f 37/64/2 38/63/2 34/65/2 33/66/2
f 35/67/5 39/62/5 37/64/5 33/68/5
f 40/61/6 36/69/6 34/70/6 38/63/6
f 41/71/6 43/72/6 44/73/6 42/74/6
f 43/72/7 47/75/7 48/76/7 44/73/7
f 47/75/5 45/77/5 46/78/5 48/76/5
f 45/77/8 41/79/8 42/80/8 46/78/8
f 43/81/9 41/82/9 45/77/9 47/75/9
f 48/76/10 46/78/10 42/83/10 44/84/10
f 49/85/5 51/86/5 52/87/5 50/88/5
f 51/86/11 55/89/11 56/90/11 52/87/11
f 55/89/6 53/91/6 54/92/6 56/90/6
f 53/91/12 49/93/12 50/94/12 54/92/12
f 51/95/13 49/96/13 53/91/13 55/89/13
f 56/90/14 54/92/14 50/97/14 52/98/14
f 57/99/5 59/100/5 60/101/5 58/102/5
f 59/100/11 63/103/11 64/104/11 60/101/11
f 63/103/6 61/105/6 62/106/6 64/104/6
f 61/105/12 57/107/12 58/108/12 62/106/12
f 59/109/13 57/110/13 61/105/13 63/103/13
f 64/104/14 62/106/14 58/111/14 60/112/14
f 65/113/6 67/114/6 68/115/6 66/116/6
f 67/114/7 71/117/7 72/118/7 68/115/7
f 71/117/5 69/119/5 70/120/5 72/118/5
f 69/119/8 65/121/8 66/122/8 70/120/8
f 67/123/9 65/124/9 69/119/9 71/117/9
f 72/118/10 70/120/10 66/125/10 68/126/10
f 73/127/1 75/128/1 76/129/1 74/130/1
f 75/128/2 79/131/2 80/132/2 76/129/2
f 79/131/3 77/133/3 78/134/3 80/132/3
f 77/133/4 73/135/4 74/136/4 78/134/4
f 75/137/5 73/138/5 77/133/5 79/131/5
f 80/132/6 78/134/6 74/139/6 76/140/6
