# Blender v2.80 (sub 75) OBJ File: 'room.blend'
# www.blender.org
mtllib room.mtl
o Cube
v -48.786915 -24.498339 17.355247
v -48.786915 24.498339 17.355247
v -48.786915 -24.498339 -17.355247
v -48.786915 24.498339 -17.355247
v 48.786915 -24.498339 17.355247
v 48.786915 24.498339 17.355247
v 48.786915 -24.498339 -17.355247
v 48.786915 24.498339 -17.355247
v -20.918932 -24.498339 -17.355247
v -20.918945 24.498339 -17.355247
v -48.786915 -24.498339 -70.423431
v -48.786915 24.498339 -70.423431
v -20.918945 24.498339 -70.423431
v -20.918932 -24.498339 -70.423431
v -48.786915 24.498339 -45.045033
v -48.786915 -24.498339 -45.045036
v -100.982666 -24.498339 -70.423431
v -100.982666 24.498339 -70.423431
v -100.982666 -24.498339 -45.045036
v -100.982666 24.498339 -45.045033
v -48.786915 -24.498339 -112.841919
v -48.786915 24.498339 -112.841919
v -20.918945 24.498339 -112.841919
v -20.918932 -24.498339 -112.841919
vt 0.375000 0.000000
vt 0.625000 0.000000
vt 0.625000 0.250000
vt 0.446402 0.250000
vt 0.375000 0.250000
vt 0.125000 0.750000
vt 0.375000 0.750000
vt 0.375000 0.750000
vt 0.125000 0.750000
vt 1.000407 -0.000288
vt 1.000407 0.997786
vt -0.000407 0.997786
vt -0.000407 -0.000288
vt 0.375000 0.750000
vt 0.625000 0.750000
vt 0.625000 1.000000
vt 0.553598 1.000000
vt 0.375000 1.000000
vt 0.125000 0.500000
vt 0.375000 0.500000
vt 0.625000 0.500000
vt 0.875000 0.500000
vt 0.875000 0.750000
vt 0.625000 0.321402
vt 0.375000 0.321402
vt 0.375000 0.321402
vt 0.625000 0.321402
vt 0.375000 0.321402
vt 0.625000 0.321402
vt 0.625000 0.500000
vt 0.375000 0.500000
vt 0.446402 0.250000
vt 0.375000 0.250000
vt 0.375000 0.250000
vt 0.625000 1.000000
vt 0.625000 1.000000
vt 0.553598 1.000000
vt 0.125000 0.750000
vt 0.375000 0.750000
vt 0.375000 0.750000
vt 0.125000 0.750000
vt 0.625000 1.000000
vt 0.625000 1.000000
vt 0.375000 0.250000
vt 0.375000 0.250000
vt 0.625000 0.250000
vt 0.375000 0.250000
vt 0.375000 0.250000
vt 0.625000 0.250000
vt 0.375000 0.250000
vt 0.625000 0.250000
vt 0.625000 1.000000
vt 0.553598 1.000000
vt 0.446402 0.250000
vt 0.375000 0.250000
vn 0.0000 1.0000 -0.0000
vn 1.0000 -0.0000 0.0000
vn -1.0000 0.0000 0.0000
vn 0.0000 -1.0000 0.0000
vn 0.0000 0.0000 -1.0000
vn 0.0000 0.0000 1.0000
usemtl Material
s off
f 1/1/1 5/2/1 7/3/1 9/4/1 3/5/1
f 4/6/2 3/7/2 16/8/2 15/9/2
f 8/10/3 7/11/3 5/12/3 6/13/3
f 6/14/4 2/15/4 4/16/4 10/17/4 8/18/4
f 2/19/2 1/20/2 3/7/2 4/6/2
f 6/21/5 5/22/5 1/23/5 2/15/5
f 14/24/3 13/25/3 23/26/3 24/27/3
f 10/28/6 9/29/6 7/30/6 8/31/6
f 9/29/3 10/28/3 13/25/3 14/24/3
f 3/5/1 9/4/1 14/32/1 11/33/1 16/34/1
f 10/17/4 4/16/4 15/35/4 12/36/4 13/37/4
f 20/38/2 19/39/2 17/40/2 18/41/2
f 15/9/5 16/8/5 19/39/5 20/38/5
f 12/36/4 15/35/4 20/42/4 18/43/4
f 16/34/1 11/33/1 17/44/1 19/45/1
f 11/46/6 12/47/6 18/48/6 17/49/6
f 22/50/6 21/51/6 24/27/6 23/26/6
f 13/37/4 12/36/4 22/52/4 23/53/4
f 11/33/1 14/32/1 24/54/1 21/55/1
f 12/47/2 11/46/2 21/51/2 22/50/2
